<svg xmlns="http://www.w3.org/2000/svg" viewBox="0 0 64 64">
  <defs>
    <linearGradient id="waveGradient" x1="8" y1="8" x2="56" y2="56" gradientUnits="userSpaceOnUse">
      <stop offset="0" stop-color="#62b8dd" />
      <stop offset="1" stop-color="#dff7ff" />
    </linearGradient>
  </defs>
  <rect x="4" y="4" width="56" height="56" rx="14" fill="#0c1a35"/>
  <rect x="4.5" y="4.5" width="55" height="55" rx="13.5" fill="none" stroke="#4f7cab" stroke-opacity="0.55"/>
  <circle cx="22" cy="32" r="4.5" fill="url(#waveGradient)"/>
  <path d="M34 32a2 2 0 0 1 2-2 10 10 0 0 0 10-10 2 2 0 1 1 4 0 14 14 0 0 1-14 14 2 2 0 0 1-2-2Z" fill="url(#waveGradient)"/>
  <path d="M34 46a2 2 0 0 1 0-4c12.15 0 22-9.85 22-22a2 2 0 1 1 4 0c0 14.36-11.64 26-26 26Z" fill="url(#waveGradient)" opacity="0.95"/>
  <path d="M34 20a2 2 0 1 1 0-4 3.5 3.5 0 0 0 3.5-3.5 2 2 0 1 1 4 0A7.5 7.5 0 0 1 34 20Z" fill="url(#waveGradient)" opacity="0.88"/>
</svg>